<svg width="21" height="28" viewBox="0 0 21 28" fill="none" xmlns="http://www.w3.org/2000/svg">
<path d="M10.0192 16.9868C11.4515 16.9868 12.8517 16.5621 14.0427 15.7663C15.2337 14.9705 16.1619 13.8394 16.7101 12.5161C17.2582 11.1928 17.4016 9.7366 17.1222 8.33175C16.8427 6.9269 16.153 5.63647 15.1402 4.62363C14.1273 3.61079 12.8369 2.92104 11.432 2.6416C10.0272 2.36216 8.57103 2.50558 7.2477 3.05372C5.92436 3.60187 4.79329 4.53012 3.99751 5.72109C3.20172 6.91206 2.77698 8.31226 2.77698 9.74463C2.7789 11.6648 3.54253 13.5057 4.90029 14.8635C6.25804 16.2213 8.099 16.9849 10.0192 16.9868ZM10.0192 3.32487C11.2893 3.32487 12.5309 3.7015 13.587 4.40715C14.643 5.11279 15.4661 6.11575 15.9522 7.2892C16.4382 8.46264 16.5654 9.75387 16.3176 10.9996C16.0698 12.2453 15.4582 13.3896 14.5601 14.2877C13.662 15.1858 12.5177 15.7974 11.272 16.0452C10.0263 16.293 8.73506 16.1658 7.56161 15.6798C6.38817 15.1937 5.38521 14.3706 4.67957 13.3145C3.97393 12.2585 3.59729 11.0169 3.59729 9.74674C3.5989 8.04405 4.27601 6.41156 5.47999 5.20757C6.68398 4.00359 8.31647 3.32648 10.0192 3.32487Z" fill="#383838"/>
<path d="M7.57891 10.8421L6.67352 13.5582C6.64652 13.6393 6.64552 13.7268 6.67067 13.8085C6.69581 13.8902 6.74583 13.9619 6.81375 14.0138C6.88167 14.0657 6.96409 14.095 7.0495 14.0978C7.13492 14.1005 7.21905 14.0765 7.29016 14.0291L10.0192 12.2097L12.7483 14.0291C12.8194 14.0765 12.9035 14.1005 12.9889 14.0978C13.0744 14.095 13.1568 14.0657 13.2247 14.0138C13.2926 13.9619 13.3426 13.8902 13.3678 13.8085C13.3929 13.7268 13.3919 13.6393 13.3649 13.5582L12.4595 10.8421L14.2513 9.05028C14.3088 8.99296 14.3479 8.91989 14.3638 8.84031C14.3797 8.76074 14.3716 8.67825 14.3405 8.60328C14.3095 8.52831 14.2569 8.46424 14.1894 8.41919C14.1219 8.37414 14.0426 8.35013 13.9614 8.3502H11.3003L10.4083 5.67387C10.381 5.59224 10.3288 5.52124 10.259 5.47093C10.1892 5.42062 10.1053 5.39355 10.0192 5.39355C9.93317 5.39355 9.84929 5.42062 9.77946 5.47093C9.70964 5.52124 9.65741 5.59224 9.63016 5.67387L8.73813 8.3502H6.07703C5.99589 8.35013 5.91655 8.37414 5.84907 8.41919C5.78158 8.46424 5.72899 8.52831 5.69794 8.60328C5.66689 8.67825 5.6588 8.76074 5.67467 8.84031C5.69054 8.91989 5.72968 8.99296 5.78711 9.05028L7.57891 10.8421ZM9.03485 9.17051C9.12102 9.17045 9.20499 9.14324 9.27483 9.09275C9.34467 9.04227 9.39683 8.97107 9.42391 8.88926L10.0192 7.10075L10.6157 8.89067C10.6428 8.97248 10.695 9.04368 10.7648 9.09416C10.8346 9.14465 10.9186 9.17185 11.0048 9.17192H12.9724L11.7013 10.4427C11.6475 10.4965 11.6098 10.5643 11.5923 10.6384C11.5748 10.7125 11.5783 10.79 11.6024 10.8622L12.2099 12.685L10.2468 11.375C10.1794 11.3301 10.1002 11.3061 10.0192 11.3061C9.93822 11.3061 9.85904 11.3301 9.79165 11.375L7.82969 12.6831L8.43719 10.8604C8.46129 10.7881 8.4648 10.7106 8.44733 10.6365C8.42986 10.5624 8.3921 10.4947 8.33829 10.4408L7.06727 9.17004L9.03485 9.17051Z" fill="#383838"/>
<path d="M19.9956 24.6729L16.1924 16.9456C16.4884 16.8871 16.755 16.7277 16.9468 16.4948C17.1385 16.2618 17.2436 15.9695 17.244 15.6677V14.8943C17.2439 14.7989 17.2721 14.7056 17.3251 14.6263C17.3781 14.547 17.4535 14.4853 17.5417 14.449L18.257 14.1523C18.4151 14.0868 18.5586 13.9908 18.6796 13.8698C18.8005 13.7488 18.8964 13.6051 18.9618 13.447C19.0272 13.289 19.0608 13.1195 19.0607 12.9485C19.0607 12.7774 19.0269 12.608 18.9613 12.45L18.6676 11.7373C18.6309 11.6492 18.6212 11.5522 18.6398 11.4585C18.6583 11.3649 18.7044 11.279 18.7719 11.2116L19.3169 10.6669C19.5607 10.4223 19.6976 10.091 19.6976 9.74567C19.6976 9.40031 19.5607 9.06904 19.3169 8.82446L18.7694 8.27719C18.7017 8.20984 18.6556 8.12389 18.637 8.03028C18.6183 7.93667 18.6279 7.83963 18.6646 7.75149L18.9608 7.03594C19.0262 6.87785 19.0599 6.70842 19.0598 6.53734C19.0597 6.36625 19.0259 6.19685 18.9604 6.03882C18.8948 5.88079 18.7988 5.73722 18.6777 5.61631C18.5567 5.4954 18.413 5.39952 18.2549 5.33415L17.5426 5.03954C17.4544 5.0032 17.379 4.94147 17.326 4.86218C17.2729 4.78289 17.2447 4.68962 17.2448 4.59423V3.8236C17.2444 3.47821 17.107 3.14706 16.8628 2.90281C16.6186 2.65856 16.2875 2.52114 15.9421 2.52071H15.1668C15.0714 2.52087 14.9781 2.49266 14.8988 2.43965C14.8195 2.38665 14.7578 2.31125 14.7215 2.22305L14.4255 1.50774C14.3598 1.3497 14.2637 1.20613 14.1426 1.08525C14.0215 0.964364 13.8777 0.868535 13.7196 0.803237C13.5614 0.737938 13.3919 0.70445 13.2208 0.704687C13.0496 0.704924 12.8802 0.73888 12.7222 0.804616L12.0114 1.09852C11.9232 1.13515 11.8261 1.14476 11.7324 1.12615C11.6388 1.10754 11.5527 1.06155 11.4852 0.993991L10.9403 0.449538C10.6958 0.205601 10.3646 0.0686035 10.0192 0.0686035C9.67384 0.0686035 9.34259 0.205601 9.09811 0.449538L8.55038 0.997038C8.48305 1.06464 8.39713 1.11068 8.30356 1.1293C8.20998 1.14791 8.11298 1.13826 8.02491 1.10157L7.30913 0.804616C6.98986 0.672639 6.63125 0.672839 6.31214 0.805171C5.99302 0.937503 5.73951 1.19114 5.60733 1.51032L5.31295 2.22282C5.27667 2.31106 5.21495 2.38651 5.13565 2.43956C5.05634 2.4926 4.96305 2.52085 4.86764 2.52071H4.09702C3.75162 2.52114 3.4205 2.65856 3.1763 2.90281C2.93209 3.14706 2.79473 3.47821 2.79436 3.8236V4.59704C2.79452 4.69242 2.76631 4.7857 2.7133 4.86499C2.6603 4.94429 2.5849 5.00603 2.4967 5.04235L1.78139 5.33907C1.46243 5.47158 1.20917 5.72537 1.07732 6.0446C0.945458 6.36382 0.9458 6.72236 1.07827 7.04134L1.37311 7.7529C1.40982 7.84099 1.4195 7.938 1.40093 8.03161C1.38236 8.12522 1.33637 8.21119 1.26881 8.2786L0.723892 8.82329C0.479998 9.06783 0.343034 9.39912 0.343034 9.7445C0.343034 10.0899 0.479998 10.4212 0.723892 10.6657L1.27139 11.2132C1.33903 11.2806 1.3851 11.3665 1.40376 11.4601C1.42241 11.5537 1.41281 11.6508 1.37616 11.7389L1.07991 12.4545C1.0145 12.6126 0.980879 12.782 0.98096 12.9531C0.98104 13.1242 1.01482 13.2936 1.08038 13.4516C1.14593 13.6096 1.24197 13.7532 1.36302 13.8741C1.48406 13.995 1.62774 14.0909 1.78585 14.1563L2.49577 14.4518C2.58397 14.4881 2.65938 14.5499 2.71242 14.6292C2.76546 14.7085 2.79374 14.8017 2.79366 14.8971V15.6673C2.79411 15.969 2.89917 16.2613 3.09092 16.4943C3.28267 16.7273 3.54927 16.8866 3.8453 16.9451L0.042095 24.6724C0.00630506 24.7452 -0.00710391 24.827 0.00356333 24.9074C0.0142306 24.9878 0.0484951 25.0632 0.102025 25.1241C0.155556 25.1851 0.225949 25.2288 0.304306 25.2497C0.382664 25.2706 0.465468 25.2678 0.542251 25.2417L4.1985 23.9977L5.44256 27.6539C5.46871 27.7307 5.51705 27.7981 5.58146 27.8474C5.64587 27.8968 5.72347 27.9259 5.80444 27.9312H5.83092C5.90752 27.9312 5.98257 27.9097 6.0476 27.8692C6.11263 27.8288 6.16504 27.7709 6.19889 27.7022L10.0192 19.9423L13.8395 27.7029C13.8734 27.7716 13.9258 27.8295 13.9908 27.8699C14.0558 27.9104 14.1309 27.9319 14.2075 27.9319H14.234C14.3149 27.9266 14.3925 27.8974 14.4569 27.8481C14.5213 27.7987 14.5697 27.7314 14.5958 27.6546L15.8399 23.9984L19.4962 25.2424C19.5729 25.2686 19.6557 25.2713 19.7341 25.2504C19.8125 25.2295 19.8829 25.1858 19.9364 25.1248C19.9899 25.0639 20.0242 24.9885 20.0348 24.9081C20.0455 24.8277 20.0321 24.7459 19.9963 24.6731L19.9956 24.6729ZM3.61467 15.6677V14.8976C3.61521 14.6397 3.53898 14.3875 3.39569 14.1732C3.2524 13.9588 3.04853 13.7919 2.81006 13.6938L2.0985 13.3995C2.03993 13.3753 1.98671 13.3398 1.94187 13.295C1.89703 13.2502 1.86146 13.1971 1.83719 13.1385C1.81292 13.08 1.80042 13.0172 1.80042 12.9539C1.80042 12.8905 1.81291 12.8278 1.83717 12.7692L2.13319 12.0546C2.23217 11.8167 2.25814 11.5547 2.20781 11.3019C2.15748 11.0492 2.03311 10.8171 1.85053 10.6352L1.30303 10.0859C1.21265 9.99534 1.16189 9.87265 1.16189 9.74473C1.16189 9.61681 1.21265 9.49412 1.30303 9.4036L1.84749 8.85891C2.03005 8.67688 2.15429 8.44461 2.20438 8.19171C2.25447 7.9388 2.22814 7.67672 2.12874 7.43884L1.83483 6.72844C1.81051 6.66992 1.79797 6.60718 1.79792 6.54381C1.79788 6.48044 1.81032 6.41769 1.83455 6.35913C1.85878 6.30057 1.89431 6.24737 1.93912 6.20256C1.98393 6.15774 2.03713 6.12221 2.09569 6.09798L2.811 5.80149C3.04918 5.70316 3.25276 5.53624 3.39585 5.32195C3.53895 5.10765 3.61512 4.85566 3.61467 4.59798V3.82454C3.61486 3.69665 3.66573 3.57405 3.75614 3.48359C3.84655 3.39314 3.96913 3.34221 4.09702 3.34196H4.86741C5.12526 3.34247 5.37742 3.26623 5.59179 3.12294C5.80616 2.97965 5.97303 2.7758 6.07116 2.53735L6.36553 1.82579C6.38968 1.76718 6.42514 1.7139 6.46989 1.66899C6.51463 1.62409 6.56779 1.58844 6.62631 1.56409C6.68484 1.53973 6.74759 1.52715 6.81098 1.52705C6.87438 1.52695 6.93717 1.53935 6.99577 1.56352L7.71131 1.8593C7.9491 1.95834 8.21096 1.98448 8.46364 1.93441C8.71631 1.88433 8.94841 1.7603 9.13045 1.57805L9.67795 1.03032C9.76993 0.94263 9.89213 0.893712 10.0192 0.893712C10.1463 0.893712 10.2685 0.94263 10.3605 1.03032L10.9049 1.57477C11.0868 1.75754 11.319 1.882 11.5719 1.9323C11.8248 1.98259 12.087 1.95645 12.325 1.85719L13.0365 1.56212C13.0951 1.53781 13.1578 1.52528 13.2212 1.52526C13.2845 1.52523 13.3473 1.53769 13.4058 1.56195C13.4644 1.5862 13.5175 1.62176 13.5623 1.66659C13.6071 1.71142 13.6426 1.76464 13.6668 1.82321L13.9635 2.53829C14.0617 2.77649 14.2286 2.98009 14.4429 3.1232C14.6571 3.2663 14.9091 3.34245 15.1668 3.34196H15.9414C16.0693 3.34221 16.1919 3.39314 16.2823 3.48359C16.3727 3.57405 16.4235 3.69665 16.4237 3.82454V4.59469C16.4235 4.85227 16.4999 5.10409 16.6432 5.31815C16.7864 5.5322 16.9901 5.69881 17.2283 5.7968L17.9411 6.09188C17.9996 6.11607 18.0529 6.15157 18.0977 6.19634C18.1425 6.24112 18.1781 6.29429 18.2024 6.35282C18.2267 6.41136 18.2392 6.4741 18.2392 6.53747C18.2392 6.60084 18.2267 6.66358 18.2024 6.72212L17.9052 7.43743C17.8063 7.67541 17.7803 7.93745 17.8306 8.19023C17.8809 8.44301 18.0053 8.67511 18.1879 8.85704L18.7354 9.40454C18.8258 9.49506 18.8765 9.61775 18.8765 9.74567C18.8765 9.87359 18.8258 9.99628 18.7354 10.0868L18.1909 10.6313C18.0084 10.8133 17.8841 11.0456 17.834 11.2985C17.7839 11.5514 17.8103 11.8135 17.9097 12.0513L18.2045 12.7629C18.2288 12.8214 18.2413 12.8842 18.2413 12.9475C18.2414 13.0109 18.2289 13.0736 18.2047 13.1322C18.1805 13.1907 18.145 13.2439 18.1002 13.2887C18.0554 13.3336 18.0022 13.3691 17.9437 13.3934L17.2283 13.6898C16.9902 13.7882 16.7866 13.9551 16.6435 14.1694C16.5004 14.3837 16.4242 14.6357 16.4247 14.8934V15.6668C16.4245 15.7947 16.3736 15.9173 16.2832 16.0077C16.1928 16.0981 16.0702 16.149 15.9423 16.1491H15.171C14.9132 16.1487 14.661 16.2249 14.4466 16.3682C14.2323 16.5115 14.0654 16.7153 13.9673 16.9538L13.6729 17.6656C13.6488 17.7242 13.6133 17.7775 13.5686 17.8224C13.5238 17.8673 13.4706 17.903 13.4121 17.9273C13.3536 17.9516 13.2908 17.9642 13.2274 17.9642C13.164 17.9643 13.1012 17.9518 13.0426 17.9276L12.3271 17.6327C12.0893 17.5336 11.8274 17.5075 11.5748 17.5575C11.3221 17.6076 11.09 17.7317 10.908 17.914L10.3605 18.4617C10.2685 18.5494 10.1463 18.5983 10.0192 18.5983C9.89213 18.5983 9.76993 18.5494 9.67795 18.4617L9.1335 17.917C8.95145 17.7345 8.71918 17.6103 8.46629 17.5602C8.21339 17.5101 7.95131 17.5364 7.71342 17.6358L7.00186 17.9309C6.94335 17.9551 6.88064 17.9677 6.81729 17.9677C6.75395 17.9677 6.69122 17.9553 6.63269 17.931C6.57416 17.9068 6.52097 17.8713 6.47618 17.8265C6.43139 17.7817 6.39586 17.7285 6.37163 17.67L6.07491 16.9531C5.97668 16.7148 5.80983 16.5112 5.59556 16.368C5.3813 16.2249 5.12931 16.1487 4.87163 16.1491H4.09819C3.97028 16.1493 3.84754 16.0987 3.7569 16.0084C3.66626 15.9182 3.61511 15.7956 3.61467 15.6677ZM5.90053 26.4523L4.8435 23.3456C4.82618 23.2946 4.79896 23.2475 4.76342 23.207C4.72787 23.1665 4.68469 23.1334 4.63634 23.1096C4.58799 23.0858 4.53543 23.0718 4.48165 23.0683C4.42788 23.0649 4.37395 23.0721 4.32295 23.0895L1.21608 24.1467L4.74835 16.9704H4.87163C4.96699 16.9703 5.06024 16.9985 5.13953 17.0515C5.21882 17.1045 5.28057 17.1799 5.31694 17.2681L5.61295 17.9843C5.74557 18.3032 5.99936 18.5564 6.31855 18.6882C6.63775 18.82 6.99623 18.8198 7.31522 18.6874L8.02702 18.3928C8.1152 18.3561 8.21231 18.3464 8.306 18.365C8.3997 18.3837 8.48574 18.4297 8.55319 18.4974L9.09764 19.0418C9.19582 19.1373 9.30866 19.2164 9.43186 19.2762L5.90053 26.4523ZM15.7145 23.0895C15.6635 23.0721 15.6096 23.0649 15.5558 23.0683C15.502 23.0718 15.4495 23.0858 15.4011 23.1096C15.3528 23.1334 15.3096 23.1665 15.2741 23.207C15.2385 23.2475 15.2113 23.2946 15.194 23.3456L14.1369 26.4523L10.6051 19.2769C10.7283 19.2171 10.8412 19.138 10.9394 19.0425L11.4871 18.495C11.5544 18.4273 11.6403 18.3812 11.7339 18.3626C11.8275 18.3439 11.9245 18.3535 12.0126 18.3902L12.7281 18.6865C13.0474 18.8185 13.4061 18.8183 13.7253 18.686C14.0445 18.5536 14.298 18.2998 14.4301 17.9806L14.7245 17.2692C14.7608 17.1809 14.8225 17.1054 14.9018 17.0524C14.9811 16.9993 15.0744 16.971 15.1698 16.9711H15.2889L18.8212 24.1474L15.7145 23.0895Z" fill="#383838"/>
</svg>
