<svg width="30" height="30" viewBox="0 0 30 30" fill="none" xmlns="http://www.w3.org/2000/svg">
<g clip-path="url(#clip0)">
<path d="M22.5 3.75001C22.176 3.75001 21.8427 3.78287 21.5021 3.83299C20.2129 1.55683 17.7972 0 15 0C12.2028 0 9.7871 1.55688 8.49793 3.83299C8.15735 3.78287 7.8241 3.75001 7.50003 3.75001C3.36458 3.75001 0 7.11367 0 11.25C0 13.9526 1.42183 16.3806 3.75001 17.7228V27.1875C3.75001 28.7384 5.0116 30 6.56251 30H23.4375C24.9885 30 26.25 28.7384 26.25 27.1875V17.7228C28.5782 16.3806 30.0001 13.9526 30.0001 11.25C30 7.11367 26.6355 3.75001 22.5 3.75001ZM23.4375 28.125H6.56251C6.04523 28.125 5.62499 27.7039 5.62499 27.1875V24.375H24.375V27.1875C24.375 27.7039 23.9548 28.125 23.4375 28.125ZM24.9079 16.3111C24.5829 16.4667 24.375 16.7963 24.375 17.157V22.5H5.62499V17.157C5.62499 16.7963 5.41718 16.4667 5.09213 16.3111C3.1073 15.3626 1.87498 13.4235 1.87498 11.25C1.87498 8.14822 4.39816 5.62505 7.49997 5.62505C7.57963 5.62505 7.67461 5.65307 7.75622 5.6573C7.60505 6.25022 7.49997 6.86063 7.49997 7.50003C7.49997 8.01823 7.91929 8.43754 8.43749 8.43754C8.95569 8.43754 9.37501 8.01823 9.37501 7.50003C9.37501 4.39821 11.8982 1.87503 15 1.87503C18.1018 1.87503 20.625 4.39821 20.625 7.50003C20.625 8.01823 21.0443 8.43754 21.5625 8.43754C22.0807 8.43754 22.5 8.01823 22.5 7.50003C22.5 6.86063 22.395 6.25022 22.2438 5.6573C22.3254 5.65307 22.4204 5.62505 22.5 5.62505C25.6018 5.62505 28.125 8.14822 28.125 11.25C28.125 13.4235 26.8927 15.3626 24.9079 16.3111Z" fill="white"/>
</g>
<defs>
<clipPath id="clip0">
<rect width="30" height="30" fill="white"/>
</clipPath>
</defs>
</svg>
