<svg width="30" height="30" viewBox="0 0 30 30" fill="none" xmlns="http://www.w3.org/2000/svg">
<g clip-path="url(#clip0)">
<path d="M27.559 2.71366C26.0193 1.90425 23.782 2.57275 20.9095 4.70023C18.4141 6.54833 16.2214 8.89495 15.0252 10.269C14.1876 8.75111 13.1416 7.07562 12.0089 5.53988C9.87842 2.65126 6.79235 -0.635964 4.19008 0.106301C1.58752 0.848977 0.703051 5.26964 0.419398 8.84738C0.103402 12.833 0.433813 17.1411 0.921137 18.8468C1.7561 21.7686 3.31305 23.9891 5.42354 25.268C6.68565 26.0328 8.08123 26.4233 9.49188 26.4233C9.90403 26.4233 10.3175 26.3889 10.7293 26.3217C11.5885 27.3574 12.6282 28.2007 13.8254 28.8303C15.3005 29.6054 16.9025 30 18.5389 30C19.1644 30 19.7952 29.9423 20.4254 29.8262C20.7436 29.7675 20.954 29.462 20.8953 29.1438C20.8367 28.8255 20.531 28.6153 20.213 28.6738C18.1952 29.0458 16.1747 28.7412 14.3706 27.7931C13.4815 27.3256 12.6906 26.7246 12.0097 26.0018C13.9322 25.3448 15.4942 23.9799 16.4357 22.123C17.1468 20.7205 17.4641 19.1117 17.3848 17.3728L19.3172 18.3874L27.0714 22.4609L27.1413 22.4977C27.3821 22.6244 27.6495 22.7652 27.7715 22.8549C27.6808 23.0743 27.3398 23.5648 27.0595 23.9679C26.3645 24.967 25.5743 25.8336 24.7108 26.5437C24.4609 26.7492 24.4248 27.1184 24.6304 27.3683C24.7462 27.5093 24.914 27.5821 25.0833 27.5821C25.2142 27.5821 25.346 27.5384 25.455 27.4488C26.4016 26.6704 27.2651 25.7244 28.0215 24.6369C28.7222 23.6292 29.0739 23.1234 28.9367 22.5614C28.8126 22.053 28.3648 21.8173 27.6869 21.4607L27.179 21.1938C27.9814 19.3459 29.0063 15.6178 29.4626 12.0397C29.9167 8.47964 29.9548 3.97167 27.559 2.71366ZM11.3029 24.9956C11.1611 25.0362 11.0174 25.0716 10.8721 25.1025C10.8534 25.1055 10.8347 25.1094 10.8162 25.1143C7.59426 25.7704 3.62225 24.0341 2.04789 18.5248C1.58852 16.917 1.2819 12.7952 1.58758 8.9399C1.79272 6.35286 2.23627 4.32212 2.86528 2.9873C2.86299 3.01636 2.86071 3.04536 2.8586 3.07396C2.76291 4.36648 2.81137 6.09435 3.00262 8.20952C3.3434 11.9795 4.07295 16.1284 4.55354 17.8103C4.62707 18.0676 4.86162 18.2354 5.11662 18.2354C5.16989 18.2354 5.22409 18.2281 5.27787 18.2127C5.58901 18.1238 5.76918 17.7995 5.6803 17.4884C5.22584 15.8978 4.52483 11.9204 4.18475 8.26812C3.99877 6.27113 3.94024 4.56546 4.01547 3.33552C4.04717 2.81732 4.09944 2.42556 4.1585 2.12896L8.64948 17.8485C8.72301 18.1058 8.95756 18.2736 9.21256 18.2736C9.26582 18.2736 9.32002 18.2663 9.37381 18.2509C9.68495 18.162 9.86512 17.8378 9.77623 17.5266L5.28538 1.80798C5.49209 2.02865 5.74328 2.33357 6.04364 2.75661C6.75713 3.76138 7.60827 5.24081 8.50522 7.03495C10.1451 10.3154 11.6509 14.0635 12.1056 15.6547C12.1945 15.9659 12.5186 16.1462 12.8299 16.0572C13.141 15.9683 13.3212 15.644 13.2323 15.3328C12.7516 13.6503 11.1796 9.74175 9.47817 6.36107C8.52332 4.4638 7.65186 2.97083 6.88797 1.9237C6.87198 1.90179 6.85563 1.87952 6.83922 1.85732C8.07801 2.65935 9.52621 4.14786 11.0659 6.23544C13.3616 9.348 15.2785 13.0103 15.738 14.6185C17.3915 20.405 14.5981 24.054 11.3029 24.9956ZM15.6156 11.379C18.47 8.01822 22.0246 4.88972 24.6082 3.88589C23.7566 4.64597 22.742 5.7439 21.5891 7.15366C19.7978 9.34419 17.9499 11.959 16.727 13.8707C16.4949 13.2127 16.1118 12.351 15.6156 11.379ZM28.3004 11.8916C27.8615 15.3337 26.8962 18.8855 26.1404 20.6482L23.8451 19.4424C24.5543 17.9609 25.5455 15.4534 26.3687 13.0389C26.4731 12.7326 26.3095 12.3997 26.0032 12.2953C25.6967 12.1908 25.364 12.3544 25.2596 12.6607C24.3781 15.2462 23.4222 17.5979 22.8064 18.8967L19.862 17.3499L17.2396 15.973C17.2104 15.7911 17.1773 15.6082 17.1401 15.4242C18.2434 13.5915 20.3503 10.5353 22.3934 8.0215C24.2678 5.71536 25.4398 4.65224 26.1346 4.16345L21.3276 13.3045C21.177 13.5909 21.287 13.9451 21.5734 14.0957C21.86 14.2464 22.2142 14.1363 22.3647 13.8499L27.482 4.11892C28.4978 5.22909 28.7977 7.99085 28.3004 11.8916Z" fill="#515151"/>
<path d="M9.51804 19.8044C9.28923 20.0332 9.28923 20.4042 9.51804 20.633L9.51968 20.6346C9.63388 20.7488 9.78329 20.8059 9.93277 20.8059C10.0827 20.8059 10.2328 20.7484 10.3474 20.6338C10.5762 20.405 10.5754 20.0332 10.3466 19.8044C10.1177 19.5755 9.74691 19.5755 9.51804 19.8044Z" fill="#515151"/>
<path d="M22.5712 27.9088C22.2818 28.0535 22.1645 28.4054 22.3092 28.6949C22.4118 28.9002 22.6187 29.0188 22.8337 29.0188C22.9218 29.0188 23.0112 28.9989 23.0953 28.9568L23.0986 28.9552C23.3881 28.8105 23.5037 28.4594 23.359 28.1699C23.2142 27.8805 22.8605 27.7641 22.5712 27.9088Z" fill="#515151"/>
</g>
<defs>
<clipPath id="clip0">
<rect width="30" height="30" fill="white"/>
</clipPath>
</defs>
</svg>
