<svg width="36" height="35" viewBox="0 0 36 35" fill="none" xmlns="http://www.w3.org/2000/svg">
<path d="M7.81765 31.2457C7.81765 29.2274 9.45376 27.5912 11.4721 27.5912C13.4904 27.5912 15.1266 29.2274 15.1265 31.2457C15.1265 33.2639 13.4904 34.9001 11.4721 34.9001C9.45383 34.9001 7.81765 33.264 7.81765 31.2457ZM9.28631 31.2457C9.28631 32.4529 10.2649 33.4315 11.4721 33.4315C12.6793 33.4315 13.658 32.4529 13.6579 31.2457C13.6579 30.0385 12.6793 29.06 11.4721 29.06C10.2649 29.06 9.28631 30.0385 9.28631 31.2457Z" fill="black" stroke="black" stroke-width="0.2"/>
<path d="M23.6697 31.2457C23.6697 29.2274 25.3058 27.5912 27.3241 27.5912C29.3425 27.5912 30.9786 29.2274 30.9786 31.2457C30.9786 33.2639 29.3424 34.9001 27.3241 34.9001C25.3059 34.9001 23.6697 33.264 23.6697 31.2457ZM25.1384 31.2457C25.1384 32.4529 26.117 33.4315 27.3241 33.4315C28.5313 33.4315 29.51 32.4529 29.5099 31.2457C29.5099 30.0385 28.5313 29.06 27.3241 29.06C26.117 29.06 25.1384 30.0385 25.1384 31.2457Z" fill="black" stroke="black" stroke-width="0.2"/>
<path d="M7.87281 4.91196L7.89503 4.97986L7.96647 4.98085L35.1195 5.35623C35.3488 5.37977 35.5616 5.48646 35.7177 5.6563C35.8608 5.82458 35.9016 6.05721 35.8243 6.26411L35.8235 6.26384L35.8207 6.27588L33.8182 14.6609L33.8182 14.6611C33.3809 16.5085 31.8287 17.8809 29.9417 18.0889C29.9416 18.0889 29.9416 18.0889 29.9415 18.0889L12.3794 19.9244L12.3219 19.9304L12.2984 19.9832L11.9647 20.7341L11.9645 20.734L11.9621 20.7404C11.7089 21.4333 11.7891 22.2043 12.1798 22.8301C12.5761 23.4657 13.2654 23.8596 14.0142 23.8783V23.8784H14.0167H30.2445C30.6501 23.8784 30.9788 24.2071 30.9788 24.6127C30.9788 25.0183 30.6501 25.347 30.2445 25.347H14.0183C12.7851 25.3094 11.6479 24.6723 10.9718 23.6402C10.2888 22.5886 10.1524 21.2729 10.6051 20.1036L11.0214 19.146L11.0367 19.111L11.0246 19.0747L5.72666 3.09728L5.72667 3.09728L5.72626 3.09608C5.41612 2.19899 4.5805 1.58965 3.63153 1.56868L3.63153 1.56866H3.62932H0.83433C0.428757 1.56866 0.1 1.2399 0.1 0.834329C0.1 0.428756 0.428756 0.1 0.83433 0.1H3.62879C5.20839 0.116935 6.60681 1.12503 7.12217 2.61829L7.87281 4.91196ZM12.2949 18.3448L12.3201 18.4212L12.4001 18.413L29.7518 16.6194C29.7522 16.6194 29.7526 16.6193 29.753 16.6193C31.0375 16.5169 32.1053 15.5891 32.3859 14.3313C32.386 14.3311 32.3861 14.3308 32.3861 14.3305L34.1795 6.94857L34.2091 6.82681L34.0838 6.82497L8.51165 6.44953L8.37122 6.44746L8.41521 6.58083L12.2949 18.3448Z" fill="black" stroke="black" stroke-width="0.2"/>
</svg>
