<svg width="30" height="30" viewBox="0 0 30 30" fill="none" xmlns="http://www.w3.org/2000/svg">
<g clip-path="url(#clip0)">
<path d="M21.0221 24.5526C20.7732 24.5526 20.5484 24.3893 20.4677 24.1548C20.3915 23.9333 20.4601 23.6806 20.6358 23.5262C20.8274 23.3579 21.1147 23.3341 21.3314 23.4688C21.5328 23.5941 21.6416 23.8379 21.5987 24.0714C21.5483 24.3461 21.3018 24.5526 21.0221 24.5526Z" fill="#383838"/>
<path d="M25.7352 10.7982C24.6366 9.3292 23.1507 8.29209 21.5514 7.8779C20.4877 7.60262 19.202 7.62577 17.729 7.94692L17.729 7.94657C17.7224 7.94815 17.7085 7.95131 17.6863 7.95629C17.6478 7.96403 17.6098 7.97288 17.5727 7.98155C17.4802 8.00317 17.3378 8.03727 17.1851 8.077C16.9849 8.12885 16.7814 8.17403 16.5785 8.21176C16.5754 8.06006 16.5697 7.90415 16.5608 7.74471C16.7342 5.81295 17.5184 4.15259 18.8983 2.79984C20.0926 1.62908 21.3113 1.13584 21.3223 1.13145C21.6235 1.01309 21.7717 0.672957 21.6533 0.371787C21.535 0.0705578 21.1948 -0.0775663 20.8937 0.0407338C20.8365 0.0632922 19.4762 0.606805 18.1151 1.92686C17.3941 2.62617 16.5938 3.628 16.0409 4.9726C15.7457 4.13583 15.3012 3.33491 14.6423 2.67673C11.9864 0.0238002 7.00903 0.84985 6.71577 0.901354C6.71554 0.901412 6.7153 0.901412 6.71507 0.901471C6.50038 0.935807 6.32003 1.08581 6.25646 1.2937C6.24708 1.32434 6.23958 1.35293 6.2353 1.37678C6.20161 1.56604 5.51935 5.55889 7.23825 8.32268C4.85953 9.46338 2.34558 12.2856 2.34558 16.976C2.34558 18.6397 2.85253 20.6733 3.77315 22.702C4.67508 24.6896 5.89324 26.5059 7.20309 27.816C8.63025 29.2448 10.0967 30 11.4437 30C12.2325 30 13.0452 29.8807 13.7943 29.6547C14.5321 29.4316 15.3157 29.4174 16.0608 29.6136C16.0634 29.6143 16.066 29.615 16.0686 29.6156C16.1146 29.6278 16.1605 29.6408 16.2066 29.6548C16.9553 29.8806 17.768 30 18.5569 30C19.8457 30 21.2504 29.3051 22.619 27.9906C25.4429 25.282 27.6549 20.4438 27.6549 16.976C27.6546 14.6133 26.991 12.477 25.7352 10.7982ZM13.8139 3.50589C14.9341 4.62491 15.2995 6.3322 15.3836 7.76745C15.3628 8.03094 15.3519 9.18207 15.3519 9.18207L10.9076 4.7425C10.6786 4.51381 10.3076 4.51393 10.079 4.74297C9.85028 4.9719 9.85046 5.34291 10.0794 5.57166L14.5546 10.042C13.0241 10.124 10.376 10.0078 8.83966 8.47303C6.99432 6.62968 7.19717 3.19001 7.33217 1.9998C8.52344 1.86492 11.968 1.66195 13.8139 3.50589ZM21.8073 27.1452C20.6609 28.2461 19.5368 28.8281 18.5566 28.8281C17.8905 28.8281 17.176 28.7233 16.545 28.533C16.4866 28.5153 16.4279 28.4987 16.369 28.4831C16.368 28.4829 16.3672 28.4826 16.3663 28.4823C15.4094 28.229 14.4026 28.2465 13.4552 28.5328C12.824 28.7233 12.1095 28.8281 11.4434 28.8281C10.4142 28.8281 9.23452 28.1918 8.03172 26.9876C5.50019 24.4554 3.51721 20.0578 3.51721 16.976C3.51721 12.6695 5.86429 10.1712 7.98156 9.27201C7.99147 9.28209 8.00148 9.29216 8.0115 9.30218C9.61761 10.9065 12.0847 11.2363 13.8421 11.2362C14.9569 11.2362 15.7876 11.11 15.9286 11.0792C16.3965 10.9768 16.3851 10.7586 16.4142 10.624C16.4146 10.6223 16.415 10.6206 16.4153 10.6189C16.4157 10.617 16.4161 10.6151 16.4165 10.6132C16.417 10.6108 16.4174 10.6084 16.4179 10.6059C16.4181 10.6049 16.4183 10.6039 16.4185 10.6028C16.4294 10.5417 16.5085 10.083 16.5523 9.39681C16.5866 9.39705 16.6215 9.39429 16.6564 9.38832C16.9309 9.34121 17.2076 9.28173 17.4794 9.21136C17.5839 9.18412 17.685 9.15933 17.7691 9.13935C20.1862 9.98228 22.5767 12.7009 22.5767 16.976C22.5767 18.2284 22.2536 19.7217 21.6424 21.2948C21.5253 21.5964 21.6748 21.936 21.9764 22.0532C22.0461 22.0802 22.1179 22.0931 22.1885 22.0931C22.4231 22.0931 22.6447 21.9511 22.7348 21.7192C23.398 20.0122 23.7485 18.372 23.7485 16.976C23.7485 13.0818 21.9576 10.3105 19.7958 8.86016C20.3338 8.84896 20.8223 8.89971 21.2578 9.01238C23.7744 9.66412 26.4829 12.4342 26.4829 16.976C26.4828 20.1104 24.3855 24.6722 21.8073 27.1452Z" fill="#383838"/>
</g>
<defs>
<clipPath id="clip0">
<rect width="30" height="30" fill="white"/>
</clipPath>
</defs>
</svg>
